<svg xmlns="http://www.w3.org/2000/svg" width="16" height="12" viewBox="0 0 16 12">
  <path id="car-front-fill_1_" data-name="car-front-fill (1)" d="M2.52,3.515A2.5,2.5,0,0,1,4.82,2h6.362a2.5,2.5,0,0,1,2.3,1.515l.792,1.848a.808.808,0,0,0,.38.4,1.808,1.808,0,0,1,.965,1.262l.335,1.679A2.438,2.438,0,0,1,16,9.2v.413a2.485,2.485,0,0,1-1,2V13.5a.5.5,0,0,1-.5.5h-2a.5.5,0,0,1-.5-.5V12.162c-1.292.048-2.745.088-4,.088s-2.708-.04-4-.088V13.5a.5.5,0,0,1-.5.5h-2a.5.5,0,0,1-.5-.5V11.608a2.485,2.485,0,0,1-1-2V9.2a2.5,2.5,0,0,1,.049-.49l.335-1.68a1.808,1.808,0,0,1,.964-1.261.807.807,0,0,0,.381-.4l.792-1.848ZM3,10A1,1,0,1,0,2,9,1,1,0,0,0,3,10Zm10,0a1,1,0,1,0-1-1A1,1,0,0,0,13,10ZM6,8a1,1,0,0,0,0,2h4a1,1,0,0,0,0-2ZM2.906,5.189a.51.51,0,0,0,.5.731c.91-.073,3.35-.17,4.6-.17s3.688.1,4.6.17a.51.51,0,0,0,.5-.731l-.956-1.913A.5.5,0,0,0,11.691,3H4.309a.5.5,0,0,0-.447.276L2.906,5.19Z" transform="translate(-0.001 -2)" fill="#f2f2f2"/>
</svg>
