<svg xmlns="http://www.w3.org/2000/svg" version="1.1" xmlns:xlink="http://www.w3.org/1999/xlink" xmlns:svgjs="http://svgjs.dev/svgjs" width="1000" height="180" preserveAspectRatio="none" viewBox="0 0 1000 180"><g mask="url(&quot;#SvgjsMask1010&quot;)" fill="none"><rect width="1000" height="180" x="0" y="0" fill="rgba(217, 35, 50, 1)"></rect><path d="M1000 0L702.4200000000001 0L1000 56.54z" fill="rgba(255, 255, 255, .1)"></path><path d="M702.4200000000001 0L1000 56.54L1000 68.12L434.63000000000005 0z" fill="rgba(255, 255, 255, .075)"></path><path d="M434.63 0L1000 68.12L1000 70.4L231.56 0z" fill="rgba(255, 255, 255, .05)"></path><path d="M231.55999999999995 0L1000 70.4L1000 107.18L160.41999999999996 0z" fill="rgba(255, 255, 255, .025)"></path><path d="M0 180L155.51 180L0 148.3z" fill="rgba(0, 0, 0, .1)"></path><path d="M0 148.3L155.51 180L248.14999999999998 180L0 78.32000000000001z" fill="rgba(0, 0, 0, .075)"></path><path d="M0 78.32L248.14999999999998 180L546.5999999999999 180L0 64.91999999999999z" fill="rgba(0, 0, 0, .05)"></path><path d="M0 64.91999999999999L546.5999999999999 180L802.8599999999999 180L0 57.08999999999999z" fill="rgba(0, 0, 0, .025)"></path></g><defs><mask id="SvgjsMask1010"><rect width="1000" height="180" fill="#ffffff"></rect></mask></defs></svg>